# xmcd CD database file
#
# Track frame offsets:
#	151
#	21471
#	43065
#	65582
#	82148
#	103913
#	115515
#	131652
#	148420
#	180776
#
# Disc length: 2685 seconds
#
# Revision: 0
# Processed by: cddbd v1.5.2PL0 Copyright (c) Steve Scherf et al.
# Submitted via: CDex 1.78
#
DISCID=910a7b0a
DTITLE=The Rambling Ponies - Dusty Road
DYEAR=2004
DGENRE=Country
TTITLE0=Don't Let The Rain Fall Down On Me
TTITLE1=Every Day Withot You
TTITLE2=Bye-Bye Baby
TTITLE3=Dusty Road
TTITLE4=What's It All About
TTITLE5=Without A Word And Feel Like Hell
TTITLE6=Sail Away
TTITLE7=Lightly Blue
TTITLE8=Where Are You Tonight
TTITLE9=I'll Be There
EXTD=YEAR: 2004
EXTT0=
EXTT1=
EXTT2=
EXTT3=
EXTT4=
EXTT5=
EXTT6=
EXTT7=
EXTT8=
EXTT9=
PLAYORDER=
